<svg width="24" height="24" viewBox="0 0 24 24" fill="none" xmlns="http://www.w3.org/2000/svg">
<g clip-path="url(#clip0_567_68)">
<path d="M18.1032 1.91797H6.54162C5.31509 1.91797 4.1388 2.4052 3.27151 3.27249C2.40423 4.13978 1.91699 5.31607 1.91699 6.54259V18.1042C1.91699 19.3307 2.40423 20.507 3.27151 21.3743C4.1388 22.2415 5.31509 22.7288 6.54162 22.7288H18.1032C19.3297 22.7288 20.506 22.2415 21.3733 21.3743C22.2406 20.507 22.7278 19.3307 22.7278 18.1042V6.54259C22.7278 5.31607 22.2406 4.13978 21.3733 3.27249C20.506 2.4052 19.3297 1.91797 18.1032 1.91797Z" stroke="#B6A291" stroke-linejoin="round"/>
<path d="M12.0416 17.5852C13.2681 17.5852 14.4444 17.098 15.3117 16.2307C16.179 15.3634 16.6662 14.1871 16.6662 12.9606C16.6662 11.734 16.179 10.5577 15.3117 9.69046C14.4444 8.82317 13.2681 8.33594 12.0416 8.33594C10.8151 8.33594 9.6388 8.82317 8.77151 9.69046C7.90423 10.5577 7.41699 11.734 7.41699 12.9606C7.41699 14.1871 7.90423 15.3634 8.77151 16.2307C9.6388 17.098 10.8151 17.5852 12.0416 17.5852Z" stroke="#B6A291" stroke-width="2" stroke-linejoin="round"/>
<path d="M18.3593 7.46075C18.6659 7.46075 18.96 7.33894 19.1768 7.12212C19.3936 6.9053 19.5154 6.61123 19.5154 6.30459C19.5154 5.99796 19.3936 5.70389 19.1768 5.48707C18.96 5.27025 18.6659 5.14844 18.3593 5.14844C18.0526 5.14844 17.7586 5.27025 17.5418 5.48707C17.3249 5.70389 17.2031 5.99796 17.2031 6.30459C17.2031 6.61123 17.3249 6.9053 17.5418 7.12212C17.7586 7.33894 18.0526 7.46075 18.3593 7.46075Z" fill="#B6A291"/>
</g>
<defs>
<clipPath id="clip0_567_68">
<rect width="22" height="22" fill="white" transform="translate(1 1)"/>
</clipPath>
</defs>
</svg>
