<svg width="24" height="16" viewBox="0 0 24 16" fill="none" xmlns="http://www.w3.org/2000/svg">
<g clip-path="url(#clip0_164_341)">
<path d="M4 16C3.45 16 2.979 15.804 2.587 15.412C2.195 15.02 1.99934 14.5493 2 14V2C2 1.45 2.196 0.979002 2.588 0.587002C2.98 0.195002 3.45067 -0.000664969 4 1.69779e-06H20C20.55 1.69779e-06 21.021 0.196001 21.413 0.588001C21.805 0.980001 22.0007 1.45067 22 2V14C22 14.55 21.804 15.021 21.412 15.413C21.02 15.805 20.5493 16.0007 20 16H4ZM12 8L3 2V15H21V1.5L12 8ZM12 7L20 1H3L12 7ZM3 2V1V15V2Z" fill="#B6A291"/>
</g>
<defs>
<clipPath id="clip0_164_341">
<rect width="24" height="16" fill="white"/>
</clipPath>
</defs>
</svg>
