<svg width="24" height="19" viewBox="0 0 24 19" fill="none" xmlns="http://www.w3.org/2000/svg">
<path d="M20.2282 12.3335L15.8897 10.3892C15.6932 10.305 15.4787 10.2711 15.2657 10.2907C15.0528 10.3102 14.848 10.3826 14.6701 10.5012C14.652 10.5128 14.6348 10.5257 14.6187 10.5398L12.3511 12.4685C12.3276 12.4813 12.3014 12.4885 12.2746 12.4894C12.2479 12.4904 12.2212 12.4851 12.1968 12.474C10.7394 11.7705 9.22951 10.2698 8.52326 8.83251C8.5115 8.8085 8.50538 8.78211 8.50538 8.75537C8.50538 8.72863 8.5115 8.70224 8.52326 8.67822L10.4583 6.38222C10.4722 6.36523 10.4851 6.34745 10.4969 6.32895C10.6139 6.15033 10.6846 5.94538 10.7025 5.73261C10.7205 5.51984 10.6852 5.30594 10.5998 5.11024L8.66928 0.779058C8.55965 0.523383 8.37006 0.310161 8.12895 0.171393C7.88785 0.0326249 7.60824 -0.0242032 7.3321 0.00943748C6.13195 0.167216 5.03033 0.756591 4.23307 1.66743C3.43582 2.57826 2.99749 3.74823 3.00001 4.9587C3.00001 12.1498 8.85021 18 16.0413 18C17.2517 18.0023 18.4215 17.5639 19.3323 16.7667C20.2431 15.9695 20.8325 14.868 20.9905 13.6679C21.0241 13.393 20.968 13.1147 20.8307 12.8743C20.6933 12.6338 20.482 12.4442 20.2282 12.3335ZM16.0413 16.8979C9.45819 16.8979 4.10209 11.5418 4.10209 4.9587C4.09902 4.01636 4.43914 3.10513 5.05892 2.39527C5.67869 1.68541 6.53571 1.22548 7.46985 1.10142H7.49098C7.52799 1.10211 7.56393 1.11396 7.59408 1.13543C7.62423 1.1569 7.6472 1.18698 7.65996 1.22173L9.59778 5.54831C9.60884 5.57237 9.61456 5.59853 9.61456 5.625C9.61456 5.65147 9.60884 5.67763 9.59778 5.70169L7.65905 8.0032C7.64458 8.01963 7.63138 8.03713 7.61955 8.05555C7.49824 8.24075 7.4268 8.45414 7.41216 8.67505C7.39752 8.89597 7.44017 9.11692 7.53598 9.31651C8.3506 10.9843 10.0313 12.6521 11.7174 13.4668C11.9182 13.562 12.1402 13.6037 12.3619 13.5876C12.5835 13.5715 12.7972 13.4982 12.9821 13.3749C12.9995 13.363 13.017 13.3501 13.0335 13.3364L15.3001 11.4077C15.3225 11.3957 15.3472 11.3886 15.3726 11.387C15.3979 11.3855 15.4234 11.3894 15.4471 11.3985L19.7865 13.3428C19.8219 13.3579 19.8517 13.3837 19.8717 13.4167C19.8916 13.4497 19.9007 13.4881 19.8976 13.5265C19.7742 14.461 19.3147 15.3187 18.605 15.9392C17.8953 16.5596 16.9839 16.9004 16.0413 16.8979Z" fill="#B6A291"/>
</svg>
