<svg width="24" height="24" viewBox="0 0 24 24" fill="none" xmlns="http://www.w3.org/2000/svg">
<path d="M18.4622 5.49959C17.6218 4.65068 16.6208 3.97761 15.5176 3.51963C14.4143 3.06165 13.2309 2.82792 12.0364 2.83209C7.03141 2.83209 2.95224 6.91125 2.95224 11.9163C2.95224 13.5204 3.37391 15.0788 4.16224 16.4538L2.87891 21.1654L7.69141 19.9004C9.02057 20.6246 10.5147 21.0096 12.0364 21.0096C17.0414 21.0096 21.1206 16.9304 21.1206 11.9254C21.1206 9.49625 20.1764 7.21375 18.4622 5.49959ZM12.0364 19.4696C10.6797 19.4696 9.35057 19.1029 8.18641 18.4154L7.91141 18.2504L5.05141 19.0021L5.81224 16.2154L5.62891 15.9313C4.87517 14.7276 4.47495 13.3364 4.47391 11.9163C4.47391 7.75459 7.86557 4.36292 12.0272 4.36292C14.0439 4.36292 15.9414 5.15125 17.3622 6.58125C18.0658 7.28155 18.6233 8.11453 19.0025 9.03189C19.3817 9.94926 19.5751 10.9328 19.5714 11.9254C19.5897 16.0871 16.1981 19.4696 12.0364 19.4696ZM16.1797 13.8229C15.9506 13.7129 14.8322 13.1629 14.6306 13.0804C14.4197 13.0071 14.2731 12.9704 14.1172 13.1904C13.9614 13.4196 13.5306 13.9329 13.4022 14.0796C13.2739 14.2354 13.1364 14.2538 12.9072 14.1346C12.6781 14.0246 11.9447 13.7771 11.0831 13.0071C10.4047 12.4021 9.95557 11.6596 9.81807 11.4304C9.68974 11.2013 9.79974 11.0821 9.91891 10.9629C10.0197 10.8621 10.1481 10.6971 10.2581 10.5688C10.3681 10.4404 10.4139 10.3396 10.4872 10.1929C10.5606 10.0371 10.5239 9.90875 10.4689 9.79875C10.4139 9.68875 9.95557 8.57042 9.77224 8.11209C9.58891 7.67209 9.39641 7.72709 9.25891 7.71792H8.81891C8.66307 7.71792 8.42474 7.77292 8.21391 8.00209C8.01224 8.23125 7.42557 8.78125 7.42557 9.89959C7.42557 11.0179 8.24141 12.0996 8.35141 12.2463C8.46141 12.4021 9.95557 14.6938 12.2289 15.6746C12.7697 15.9129 13.1914 16.0504 13.5214 16.1513C14.0622 16.3254 14.5572 16.2979 14.9514 16.2429C15.3914 16.1788 16.2989 15.6929 16.4822 15.1613C16.6747 14.6296 16.6747 14.1804 16.6106 14.0796C16.5464 13.9788 16.4089 13.9329 16.1797 13.8229Z" fill="#B6A291"/>
</svg>
