<svg width="29" height="24" viewBox="0 0 29 24" fill="none" xmlns="http://www.w3.org/2000/svg">
<path d="M18.8022 11.6036L13.4689 7.79406C13.4019 7.7462 13.3241 7.71872 13.2437 7.71454C13.1633 7.71037 13.0834 7.72966 13.0125 7.77036C12.9415 7.81106 12.8822 7.87164 12.8409 7.94563C12.7995 8.01963 12.7777 8.10425 12.7778 8.19049V15.8095C12.7777 15.8957 12.7994 15.9804 12.8407 16.0544C12.882 16.1284 12.9413 16.189 13.0122 16.2298C13.0832 16.2705 13.1632 16.2898 13.2436 16.2856C13.3241 16.2814 13.4019 16.2539 13.4689 16.2059L18.8022 12.3964C18.8632 12.353 18.9132 12.294 18.9478 12.2249C18.9823 12.1557 19.0004 12.0785 19.0004 12C19.0004 11.9215 18.9823 11.8443 18.9478 11.7751C18.9132 11.706 18.8632 11.647 18.8022 11.6036ZM13.6667 14.9202V9.07977L17.7544 12L13.6667 14.9202ZM26.3844 5.15835C26.2976 4.79252 26.1308 4.45406 25.8978 4.1709C25.6648 3.88774 25.3723 3.66799 25.0444 3.52978C21.2889 1.97502 15.2522 2.00002 15 2.00002C14.7478 2.00002 8.71111 1.97502 4.95556 3.52978C4.62783 3.66787 4.33542 3.88744 4.10244 4.17039C3.86946 4.45333 3.70258 4.79155 3.61556 5.15716C3.33333 6.31787 3 8.44763 3 12C3 15.5524 3.33333 17.6821 3.61556 18.8428C3.70258 19.2085 3.86946 19.5467 4.10244 19.8296C4.33542 20.1126 4.62783 20.3321 4.95556 20.4702C8.71111 22.025 14.7478 22 15 22H15.0789C15.8444 22 21.4767 21.9488 25.0478 20.4702C25.3755 20.3321 25.6679 20.1126 25.9009 19.8296C26.1339 19.5467 26.3008 19.2085 26.3878 18.8428C26.6667 17.6809 27 15.5524 27 12C27 8.44763 26.6667 6.31787 26.3844 5.15716V5.15835ZM25.5244 18.6107C25.4728 18.8301 25.3732 19.0333 25.234 19.2034C25.0947 19.3736 24.9197 19.5058 24.7233 19.5893C21.1267 21.0702 15.0633 21.0476 15 21.0476C14.9367 21.0476 8.87667 21.0702 5.28 19.5821C5.08367 19.4987 4.90866 19.3664 4.76938 19.1963C4.6301 19.0261 4.53053 18.823 4.47889 18.6036C4.20778 17.4964 3.88889 15.4524 3.88889 12C3.88889 8.54763 4.20778 6.50358 4.47556 5.39644C4.5272 5.17701 4.62676 4.97385 4.76604 4.80372C4.90532 4.63359 5.08034 4.50134 5.27667 4.41788C8.87333 2.92978 14.9367 2.9524 15 2.9524C15.0633 2.9524 21.1233 2.92859 24.72 4.41788C24.9163 4.50134 25.0913 4.63359 25.2306 4.80372C25.3699 4.97385 25.4695 5.17701 25.5211 5.39644C25.7922 6.50358 26.1111 8.54763 26.1111 12C26.1111 15.4524 25.7922 17.4964 25.5244 18.6036V18.6107Z" fill="#B6A699"/>
</svg>
